# xmcd
#
# Track frame offsets: 
#        182
#        22757
#        52557
#        73870
#        95932
#        125332
#        153695
#        181782
#        206457
#        232020
#        260707
#        281945
#        297370
#
# Disc length: 4257 seconds
#
# Revision: 3
# Processed by: cddbd v1.5.2PL0 Copyright (c) Steve Scherf et al.
# Submitted via: ExactAudioCopy v0.99pb5
#
DISCID=c1109f0d
DTITLE=Various Artist - 1995 We Are The Blues
DYEAR=1994
DGENRE=Blues
TTITLE0=Lucky Peterson - Who's Been Talkin'?
TTITLE1=Joe Louis Walker - Blues Survivor
TTITLE2=James Cotton - Certified
TTITLE3=Johnny Copeland - Every Dog's Got His Day
TTITLE4=Charles Brown - These Blues
TTITLE5=Bid Daddy Kinsey - I Am The Blues
TTITLE6=Larry Garner - Live A Little
TTITLE7=Clarence Gatemouth Brown - There You Are
TTITLE8=Joe Louis Walker - Hold On
TTITLE9=Buddy Scott - Bad Bad Feeling
TTITLE10=Johnny Copeland - Greater Man
TTITLE11=Big Daddy Kinsey - Nothing's Too Good For My Baby
TTITLE12=Lucky Peterson - Up From The Skies
EXTD=
EXTT0=
EXTT1=
EXTT2=
EXTT3=
EXTT4=
EXTT5=
EXTT6=
EXTT7=
EXTT8=
EXTT9=
EXTT10=
EXTT11=
EXTT12=
PLAYORDER=
